<svg aria-roledescription="mindmap" role="graphics-document document" style="overflow: hidden; max-width: 100%;" xmlns="http://www.w3.org/2000/svg" width="100%" id="graph-div" height="100%" xmlns:xlink="http://www.w3.org/1999/xlink" xmlns:ev="http://www.w3.org/2001/xml-events"><style>@import url("https://cdnjs.cloudflare.com/ajax/libs/font-awesome/6.4.0/css/all.min.css");'</style><g id="viewport-20230810230640756" class="svg-pan-zoom_viewport" transform="matrix(1.0946717582152785,0,0,1.0946717582152785,-27.881097402274232,118.03138592213544)" style="transform: matrix(1.09467, 0, 0, 1.09467, -27.8811, 118.031);"><style>#graph-div{font-family:"trebuchet ms",verdana,arial,sans-serif;font-size:16px;fill:#333;}#graph-div .error-icon{fill:#552222;}#graph-div .error-text{fill:#552222;stroke:#552222;}#graph-div .edge-thickness-normal{stroke-width:2px;}#graph-div .edge-thickness-thick{stroke-width:3.5px;}#graph-div .edge-pattern-solid{stroke-dasharray:0;}#graph-div .edge-pattern-dashed{stroke-dasharray:3;}#graph-div .edge-pattern-dotted{stroke-dasharray:2;}#graph-div .marker{fill:#333333;stroke:#333333;}#graph-div .marker.cross{stroke:#333333;}#graph-div svg{font-family:"trebuchet ms",verdana,arial,sans-serif;font-size:16px;}#graph-div .edge{stroke-width:3;}#graph-div .section--1 rect,#graph-div .section--1 path,#graph-div .section--1 circle,#graph-div .section--1 polygon,#graph-div .section--1 path{fill:hsl(240, 100%, 76.2745098039%);}#graph-div .section--1 text{fill:#ffffff;}#graph-div .node-icon--1{font-size:40px;color:#ffffff;}#graph-div .section-edge--1{stroke:hsl(240, 100%, 76.2745098039%);}#graph-div .edge-depth--1{stroke-width:17;}#graph-div .section--1 line{stroke:hsl(60, 100%, 86.2745098039%);stroke-width:3;}#graph-div .disabled,#graph-div .disabled circle,#graph-div .disabled text{fill:lightgray;}#graph-div .disabled text{fill:#efefef;}#graph-div .section-0 rect,#graph-div .section-0 path,#graph-div .section-0 circle,#graph-div .section-0 polygon,#graph-div .section-0 path{fill:hsl(60, 100%, 73.5294117647%);}#graph-div .section-0 text{fill:black;}#graph-div .node-icon-0{font-size:40px;color:black;}#graph-div .section-edge-0{stroke:hsl(60, 100%, 73.5294117647%);}#graph-div .edge-depth-0{stroke-width:14;}#graph-div .section-0 line{stroke:hsl(240, 100%, 83.5294117647%);stroke-width:3;}#graph-div .disabled,#graph-div .disabled circle,#graph-div .disabled text{fill:lightgray;}#graph-div .disabled text{fill:#efefef;}#graph-div .section-1 rect,#graph-div .section-1 path,#graph-div .section-1 circle,#graph-div .section-1 polygon,#graph-div .section-1 path{fill:hsl(80, 100%, 76.2745098039%);}#graph-div .section-1 text{fill:black;}#graph-div .node-icon-1{font-size:40px;color:black;}#graph-div .section-edge-1{stroke:hsl(80, 100%, 76.2745098039%);}#graph-div .edge-depth-1{stroke-width:11;}#graph-div .section-1 line{stroke:hsl(260, 100%, 86.2745098039%);stroke-width:3;}#graph-div .disabled,#graph-div .disabled circle,#graph-div .disabled text{fill:lightgray;}#graph-div .disabled text{fill:#efefef;}#graph-div .section-2 rect,#graph-div .section-2 path,#graph-div .section-2 circle,#graph-div .section-2 polygon,#graph-div .section-2 path{fill:hsl(270, 100%, 76.2745098039%);}#graph-div .section-2 text{fill:#ffffff;}#graph-div .node-icon-2{font-size:40px;color:#ffffff;}#graph-div .section-edge-2{stroke:hsl(270, 100%, 76.2745098039%);}#graph-div .edge-depth-2{stroke-width:8;}#graph-div .section-2 line{stroke:hsl(90, 100%, 86.2745098039%);stroke-width:3;}#graph-div .disabled,#graph-div .disabled circle,#graph-div .disabled text{fill:lightgray;}#graph-div .disabled text{fill:#efefef;}#graph-div .section-3 rect,#graph-div .section-3 path,#graph-div .section-3 circle,#graph-div .section-3 polygon,#graph-div .section-3 path{fill:hsl(300, 100%, 76.2745098039%);}#graph-div .section-3 text{fill:black;}#graph-div .node-icon-3{font-size:40px;color:black;}#graph-div .section-edge-3{stroke:hsl(300, 100%, 76.2745098039%);}#graph-div .edge-depth-3{stroke-width:5;}#graph-div .section-3 line{stroke:hsl(120, 100%, 86.2745098039%);stroke-width:3;}#graph-div .disabled,#graph-div .disabled circle,#graph-div .disabled text{fill:lightgray;}#graph-div .disabled text{fill:#efefef;}#graph-div .section-4 rect,#graph-div .section-4 path,#graph-div .section-4 circle,#graph-div .section-4 polygon,#graph-div .section-4 path{fill:hsl(330, 100%, 76.2745098039%);}#graph-div .section-4 text{fill:black;}#graph-div .node-icon-4{font-size:40px;color:black;}#graph-div .section-edge-4{stroke:hsl(330, 100%, 76.2745098039%);}#graph-div .edge-depth-4{stroke-width:2;}#graph-div .section-4 line{stroke:hsl(150, 100%, 86.2745098039%);stroke-width:3;}#graph-div .disabled,#graph-div .disabled circle,#graph-div .disabled text{fill:lightgray;}#graph-div .disabled text{fill:#efefef;}#graph-div .section-5 rect,#graph-div .section-5 path,#graph-div .section-5 circle,#graph-div .section-5 polygon,#graph-div .section-5 path{fill:hsl(0, 100%, 76.2745098039%);}#graph-div .section-5 text{fill:black;}#graph-div .node-icon-5{font-size:40px;color:black;}#graph-div .section-edge-5{stroke:hsl(0, 100%, 76.2745098039%);}#graph-div .edge-depth-5{stroke-width:-1;}#graph-div .section-5 line{stroke:hsl(180, 100%, 86.2745098039%);stroke-width:3;}#graph-div .disabled,#graph-div .disabled circle,#graph-div .disabled text{fill:lightgray;}#graph-div .disabled text{fill:#efefef;}#graph-div .section-6 rect,#graph-div .section-6 path,#graph-div .section-6 circle,#graph-div .section-6 polygon,#graph-div .section-6 path{fill:hsl(30, 100%, 76.2745098039%);}#graph-div .section-6 text{fill:black;}#graph-div .node-icon-6{font-size:40px;color:black;}#graph-div .section-edge-6{stroke:hsl(30, 100%, 76.2745098039%);}#graph-div .edge-depth-6{stroke-width:-4;}#graph-div .section-6 line{stroke:hsl(210, 100%, 86.2745098039%);stroke-width:3;}#graph-div .disabled,#graph-div .disabled circle,#graph-div .disabled text{fill:lightgray;}#graph-div .disabled text{fill:#efefef;}#graph-div .section-7 rect,#graph-div .section-7 path,#graph-div .section-7 circle,#graph-div .section-7 polygon,#graph-div .section-7 path{fill:hsl(90, 100%, 76.2745098039%);}#graph-div .section-7 text{fill:black;}#graph-div .node-icon-7{font-size:40px;color:black;}#graph-div .section-edge-7{stroke:hsl(90, 100%, 76.2745098039%);}#graph-div .edge-depth-7{stroke-width:-7;}#graph-div .section-7 line{stroke:hsl(270, 100%, 86.2745098039%);stroke-width:3;}#graph-div .disabled,#graph-div .disabled circle,#graph-div .disabled text{fill:lightgray;}#graph-div .disabled text{fill:#efefef;}#graph-div .section-8 rect,#graph-div .section-8 path,#graph-div .section-8 circle,#graph-div .section-8 polygon,#graph-div .section-8 path{fill:hsl(150, 100%, 76.2745098039%);}#graph-div .section-8 text{fill:black;}#graph-div .node-icon-8{font-size:40px;color:black;}#graph-div .section-edge-8{stroke:hsl(150, 100%, 76.2745098039%);}#graph-div .edge-depth-8{stroke-width:-10;}#graph-div .section-8 line{stroke:hsl(330, 100%, 86.2745098039%);stroke-width:3;}#graph-div .disabled,#graph-div .disabled circle,#graph-div .disabled text{fill:lightgray;}#graph-div .disabled text{fill:#efefef;}#graph-div .section-9 rect,#graph-div .section-9 path,#graph-div .section-9 circle,#graph-div .section-9 polygon,#graph-div .section-9 path{fill:hsl(180, 100%, 76.2745098039%);}#graph-div .section-9 text{fill:black;}#graph-div .node-icon-9{font-size:40px;color:black;}#graph-div .section-edge-9{stroke:hsl(180, 100%, 76.2745098039%);}#graph-div .edge-depth-9{stroke-width:-13;}#graph-div .section-9 line{stroke:hsl(0, 100%, 86.2745098039%);stroke-width:3;}#graph-div .disabled,#graph-div .disabled circle,#graph-div .disabled text{fill:lightgray;}#graph-div .disabled text{fill:#efefef;}#graph-div .section-10 rect,#graph-div .section-10 path,#graph-div .section-10 circle,#graph-div .section-10 polygon,#graph-div .section-10 path{fill:hsl(210, 100%, 76.2745098039%);}#graph-div .section-10 text{fill:black;}#graph-div .node-icon-10{font-size:40px;color:black;}#graph-div .section-edge-10{stroke:hsl(210, 100%, 76.2745098039%);}#graph-div .edge-depth-10{stroke-width:-16;}#graph-div .section-10 line{stroke:hsl(30, 100%, 86.2745098039%);stroke-width:3;}#graph-div .disabled,#graph-div .disabled circle,#graph-div .disabled text{fill:lightgray;}#graph-div .disabled text{fill:#efefef;}#graph-div .section-root rect,#graph-div .section-root path,#graph-div .section-root circle,#graph-div .section-root polygon{fill:hsl(240, 100%, 46.2745098039%);}#graph-div .section-root text{fill:#ffffff;}#graph-div .icon-container{height:100%;display:flex;justify-content:center;align-items:center;}#graph-div .edge{fill:none;}#graph-div .mindmap-node-label{dy:1em;alignment-baseline:middle;text-anchor:middle;dominant-baseline:middle;text-align:center;}#graph-div :root{--mermaid-font-family:"trebuchet ms",verdana,arial,sans-serif;}</style><g></g><g></g><g class="mindmap-edges"><path class="edge section-edge-0 edge-depth-1" d="M 344.2790029540528,344.6310780384874 L 288.769407793956,356.9224345511111 L233.2598126338592,369.21379106373485"></path><path class="edge section-edge-0 edge-depth-1" d="M 365.75586894216224,354.74220915948956 L 382.27919419993793,387.04100357955537 L398.80251945771363,419.33979799962117"></path><path class="edge section-edge-0 edge-depth-1" d="M 345.3837816380471,334.93412787533236 L 299.25495007714574,312.9467838908396 L253.1261185162444,290.9594399063468"></path><path class="edge section-edge-0 edge-depth-1" d="M 373.41365749174804,345.26862717112334 L 428.01713958469645,359.89203153703755 L482.62062167764486,374.51543590295177"></path><path class="edge section-edge-0 edge-depth-1" d="M 350.3877623335692,353.7222320408601 L 329.4073877017387,384.03584530858984 L308.4270130699082,414.3494585763196"></path><path class="edge section-edge-0 edge-depth-0" d="M 350.99863428270504,246.82043879450802 L 354.33507978462137,286.6305272290634 L357.6715252865377,326.44061566361876"></path><path class="edge section-edge-1 edge-depth-1" d="M 358.80343188590916,112.56671181866247 L 345.6971797295273,80.06603539904218 L332.59092757314545,47.5653589794219"></path><path class="edge section-edge-1 edge-depth-1" d="M 379.2850372148979,124.520175987743 L 429.4836731462892,117.91107164055413 L479.68230907768054,111.30196729336525"></path><path class="edge section-edge-1 edge-depth-1" d="M 350.032968763593,122.21156612579182 L 289.3354408642414,104.20289943963454 L228.63791296488978,86.19423275347725"></path><path class="edge section-edge-1 edge-depth-1" d="M 376.6407676859466,135.16671530991653 L 410.59567221569364,159.2944230572772 L444.55057674544065,183.4221308046379"></path><path class="edge section-edge-1 edge-depth-1" d="M 374.65135982086514,115.51533163308639 L 402.0783373528976,86.14652196630126 L429.5053148849301,56.777712299516125"></path><path class="edge section-edge-1 edge-depth-0" d="M 351.8134731457387,217.01602251249514 L 357.07963370251866,179.17550355636908 L362.3457942592986,141.33498460024302"></path><path class="edge section-edge-2 edge-depth-1" d="M 171.2941194787822,225.53197875367283 L 124.27466651633921,241.00989662641507 L77.25521355389621,256.4878144991573"></path><path class="edge section-edge-2 edge-depth-1" d="M 178.22299902723515,233.93504255434232 L 160.76505043792804,265.1660713051196 L143.30710184862093,296.3971000558969"></path><path class="edge section-edge-2 edge-depth-1" d="M 170.89364974143118,217.61301157008276 L 117.1479617655068,205.76626028324816 L63.40227378958244,193.91950899641355"></path><path class="edge section-edge-2 edge-depth-1" d="M 177.4663080148581,208.2013124052038 L 158.80689128931158,178.9946073414465 L140.14747456376506,149.78790227768917"></path><path class="edge section-edge-2 edge-depth-0" d="M 334.77962371556475,230.86742816814206 L 267.64395389766287,226.3573409258094 L200.50828407976095,221.84725368347682"></path><path class="edge section-edge-3 edge-depth-1" d="M 578.7889284877688,243.40715858203666 L 598.1094904101892,272.5005987506232 L617.4300523326096,301.5940389192098"></path><path class="edge section-edge-3 edge-depth-1" d="M 585.1174659622322,234.23711841759697 L 660.0692207644855,251.27838692570077 L735.0209755667388,268.3196554338046"></path><path class="edge section-edge-3 edge-depth-1" d="M 584.5110720248094,225.5794876727132 L 638.5918927784205,205.01204510913865 L692.6727135320316,184.4446025455641"></path><path class="edge section-edge-3 edge-depth-1" d="M 558.3735431162208,239.75309801255707 L 526.1889268509503,263.23720730501304 L494.0043105856799,286.72131659746896"></path><path class="edge section-edge-3 edge-depth-1" d="M 575.3809511011889,216.7310636717745 L 585.7461291712415,186.6743292056835 L596.1113072412941,156.6175947395925"></path><path class="edge section-edge-3 edge-depth-0" d="M 364.7457482845589,231.80752126363424 L 460.11832478933,231.39219327357588 L555.4909012941011,230.97686528351753"></path></g><g class="mindmap-nodes"><g transform="translate(307.8474530143121, 213.21893631465377)" class="mindmap-node section--1 section-root"><g><path d="M0 0 a12.569531249999999,12.569531249999999 0 0,1 20.94921875,-8.379687500000001
      a29.32890625,29.32890625 1 0,1 33.518750000000004,-8.379687500000001
      a20.94921875,20.94921875 1 0,1 29.32890625,16.759375000000002

      a12.569531249999999,12.569531249999999 1 0,1 12.569531249999999,13.057734374999999
      a16.759375000000002,16.759375000000002 1 0,1 -12.569531249999999,24.250078124999998

      a20.94921875,12.569531249999999 1 0,1 -20.94921875,12.569531249999999
      a29.32890625,29.32890625 1 0,1 -41.8984375,0
      a12.569531249999999,12.569531249999999 1 0,1 -20.94921875,-12.569531249999999

      a12.569531249999999,12.569531249999999 1 0,1 -8.379687500000001,-13.057734374999999
      a16.759375000000002,16.759375000000002 1 0,1 8.379687500000001,-24.250078124999998

    H0 V0 Z" class="node-bkg node-cloud" id="node-0"></path></g><g transform="translate(41.8984375, 5)" text-anchor="middle" dominant-baseline="middle" alignment-baseline="middle" dy="1em"><g><rect class="background"></rect><text y="-10.1"><tspan dy="1.1em" y="-0.1em" x="0" class="text-outer-tspan"><tspan font-weight="normal" class="text-inner-tspan" font-style="normal">Fullstack</tspan></tspan></text></g></g></g><g transform="translate(312.0922378049306, 322.734305643473)" class="mindmap-node section-0"><g><path d="M0 32.3078125 v-27.307812499999997 q0,-5 5,-5 h83.6640625 q5,0 5,5 v32.3078125 H0 Z" class="node-bkg node-no-border" id="node-1"></path><line y2="37.3078125" x2="93.6640625" y1="37.3078125" x1="0" class="node-line-0"></line></g><g transform="translate(46.83203125, 5)" text-anchor="middle" dominant-baseline="middle" alignment-baseline="middle" dy="1em"><g><rect class="background"></rect><text y="-10.1"><tspan dy="1.1em" y="-0.1em" x="0" class="text-outer-tspan"><tspan font-weight="normal" class="text-inner-tspan" font-style="normal">Languages</tspan></tspan></text></g></g></g><g transform="translate(181.97782778298142, 353.80275095874924)" class="mindmap-node section-0"><g><path d="M0 32.3078125 v-27.307812499999997 q0,-5 5,-5 h63.2734375 q5,0 5,5 v32.3078125 H0 Z" class="node-bkg node-no-border" id="node-2"></path><line y2="37.3078125" x2="73.2734375" y1="37.3078125" x1="0" class="node-line-0"></line></g><g transform="translate(36.63671875, 5)" text-anchor="middle" dominant-baseline="middle" alignment-baseline="middle" dy="1em"><g><rect class="background"></rect><text y="-10.1"><tspan dy="1.1em" y="-0.1em" x="0" class="text-outer-tspan"><tspan font-weight="normal" class="text-inner-tspan" font-style="normal">Solidity</tspan></tspan></text></g></g></g><g transform="translate(375.35677559494525, 414.03988901563775)" class="mindmap-node section-0"><g><path d="M0 32.3078125 v-27.307812499999997 q0,-5 5,-5 h50.5546875 q5,0 5,5 v32.3078125 H0 Z" class="node-bkg node-no-border" id="node-3"></path><line y2="37.3078125" x2="60.5546875" y1="37.3078125" x1="0" class="node-line-0"></line></g><g transform="translate(30.27734375, 5)" text-anchor="middle" dominant-baseline="middle" alignment-baseline="middle" dy="1em"><g><rect class="background"></rect><text y="-10.1"><tspan dy="1.1em" y="-0.1em" x="0" class="text-outer-tspan"><tspan font-weight="normal" class="text-inner-tspan" font-style="normal">Vyper</tspan></tspan></text></g></g></g><g transform="translate(193.23016234936085, 265.8514496382062)" class="mindmap-node section-0"><g><path d="M0 32.3078125 v-27.307812499999997 q0,-5 5,-5 h82.7109375 q5,0 5,5 v32.3078125 H0 Z" class="node-bkg node-no-border" id="node-4"></path><line y2="37.3078125" x2="92.7109375" y1="37.3078125" x1="0" class="node-line-0"></line></g><g transform="translate(46.35546875, 5)" text-anchor="middle" dominant-baseline="middle" alignment-baseline="middle" dy="1em"><g><rect class="background"></rect><text y="-10.1"><tspan dy="1.1em" y="-0.1em" x="0" class="text-outer-tspan"><tspan font-weight="normal" class="text-inner-tspan" font-style="normal">Javascript</tspan></tspan></text></g></g></g><g transform="translate(462.4967288644623, 359.74194493060213)" class="mindmap-node section-0"><g><path d="M0 32.3078125 v-27.307812499999997 q0,-5 5,-5 h59.2265625 q5,0 5,5 v32.3078125 H0 Z" class="node-bkg node-no-border" id="node-5"></path><line y2="37.3078125" x2="69.2265625" y1="37.3078125" x1="0" class="node-line-0"></line></g><g transform="translate(34.61328125, 5)" text-anchor="middle" dominant-baseline="middle" alignment-baseline="middle" dy="1em"><g><rect class="background"></rect><text y="-10.1"><tspan dy="1.1em" y="-0.1em" x="0" class="text-outer-tspan"><tspan font-weight="normal" class="text-inner-tspan" font-style="normal">Python</tspan></tspan></text></g></g></g><g transform="translate(253.18347509854675, 408.0295724737067)" class="mindmap-node section-0"><g><path d="M0 32.3078125 v-27.307812499999997 q0,-5 5,-5 h83.4140625 q5,0 5,5 v32.3078125 H0 Z" class="node-bkg node-no-border" id="node-6"></path><line y2="37.3078125" x2="93.4140625" y1="37.3078125" x1="0" class="node-line-0"></line></g><g transform="translate(46.70703125, 5)" text-anchor="middle" dominant-baseline="middle" alignment-baseline="middle" dy="1em"><g><rect class="background"></rect><text y="-10.1"><tspan dy="1.1em" y="-0.1em" x="0" class="text-outer-tspan"><tspan font-weight="normal" class="text-inner-tspan" font-style="normal">Typescript</tspan></tspan></text></g></g></g><g transform="translate(322.0774393907252, 107.82425829808437)" class="mindmap-node section-1"><g><path d="M0 32.3078125 v-27.307812499999997 q0,-5 5,-5 h74.671875 q5,0 5,5 v32.3078125 H0 Z" class="node-bkg node-no-border" id="node-7"></path><line y2="37.3078125" x2="84.671875" y1="37.3078125" x1="0" class="node-line-1"></line></g><g transform="translate(42.3359375, 5)" text-anchor="middle" dominant-baseline="middle" alignment-baseline="middle" dy="1em"><g><rect class="background"></rect><text y="-10.1"><tspan dy="1.1em" y="-0.1em" x="0" class="text-outer-tspan"><tspan font-weight="normal" class="text-inner-tspan" font-style="normal">Frontend</tspan></tspan></text></g></g></g><g transform="translate(276.1762950683294, 15)" class="mindmap-node section-1"><g><path d="M0 32.3078125 v-27.307812499999997 q0,-5 5,-5 h91.609375 q5,0 5,5 v32.3078125 H0 Z" class="node-bkg node-no-border" id="node-8"></path><line y2="37.3078125" x2="101.609375" y1="37.3078125" x1="0" class="node-line-1"></line></g><g transform="translate(50.8046875, 5)" text-anchor="middle" dominant-baseline="middle" alignment-baseline="middle" dy="1em"><g><rect class="background"></rect><text y="-10.1"><tspan dy="1.1em" y="-0.1em" x="0" class="text-outer-tspan"><tspan font-weight="normal" class="text-inner-tspan" font-style="normal">HTML</tspan><tspan font-weight="normal" class="text-inner-tspan" font-style="normal"> +</tspan><tspan font-weight="normal" class="text-inner-tspan" font-style="normal"> CSS</tspan></tspan></text></g></g></g><g transform="translate(464.52271940185324, 90.69007248302387)" class="mindmap-node section-1"><g><path d="M0 32.3078125 v-27.307812499999997 q0,-5 5,-5 h50.0625 q5,0 5,5 v32.3078125 H0 Z" class="node-bkg node-no-border" id="node-9"></path><line y2="37.3078125" x2="60.0625" y1="37.3078125" x1="0" class="node-line-1"></line></g><g transform="translate(30.03125, 5)" text-anchor="middle" dominant-baseline="middle" alignment-baseline="middle" dy="1em"><g><rect class="background"></rect><text y="-10.1"><tspan dy="1.1em" y="-0.1em" x="0" class="text-outer-tspan"><tspan font-weight="normal" class="text-inner-tspan" font-style="normal">React</tspan></tspan></text></g></g></g><g transform="translate(158.77312983775755, 63.27372808118469)" class="mindmap-node section-1"><g><path d="M0 32.3078125 v-27.307812499999997 q0,-5 5,-5 h100.96875 q5,0 5,5 v32.3078125 H0 Z" class="node-bkg node-no-border" id="node-10"></path><line y2="37.3078125" x2="110.96875" y1="37.3078125" x1="0" class="node-line-1"></line></g><g transform="translate(55.484375, 5)" text-anchor="middle" dominant-baseline="middle" alignment-baseline="middle" dy="1em"><g><rect class="background"></rect><text y="-10.1"><tspan dy="1.1em" y="-0.1em" x="0" class="text-outer-tspan"><tspan font-weight="normal" class="text-inner-tspan" font-style="normal">React</tspan><tspan font-weight="normal" class="text-inner-tspan" font-style="normal"> Native</tspan></tspan></text></g></g></g><g transform="translate(428.9381237906621, 173.45677531647004)" class="mindmap-node section-1"><g><path d="M0 32.3078125 v-27.307812499999997 q0,-5 5,-5 h45.6796875 q5,0 5,5 v32.3078125 H0 Z" class="node-bkg node-no-border" id="node-11"></path><line y2="37.3078125" x2="55.6796875" y1="37.3078125" x1="0" class="node-line-1"></line></g><g transform="translate(27.83984375, 5)" text-anchor="middle" dominant-baseline="middle" alignment-baseline="middle" dy="1em"><g><rect class="background"></rect><text y="-10.1"><tspan dy="1.1em" y="-0.1em" x="0" class="text-outer-tspan"><tspan font-weight="normal" class="text-inner-tspan" font-style="normal">Viem</tspan></tspan></text></g></g></g><g transform="translate(406.23157906507004, 27.160973134518144)" class="mindmap-node section-1"><g><path d="M0 32.3078125 v-27.307812499999997 q0,-5 5,-5 h57.0234375 q5,0 5,5 v32.3078125 H0 Z" class="node-bkg node-no-border" id="node-12"></path><line y2="37.3078125" x2="67.0234375" y1="37.3078125" x1="0" class="node-line-1"></line></g><g transform="translate(33.51171875, 5)" text-anchor="middle" dominant-baseline="middle" alignment-baseline="middle" dy="1em"><g><rect class="background"></rect><text y="-10.1"><tspan dy="1.1em" y="-0.1em" x="0" class="text-outer-tspan"><tspan font-weight="normal" class="text-inner-tspan" font-style="normal">Wagmi</tspan></tspan></text></g></g></g><g transform="translate(145.6240485310136, 202.1879330369651)" class="mindmap-node section-2"><g><path d="M0 32.3078125 v-27.307812499999997 q0,-5 5,-5 h69.8359375 q5,0 5,5 v32.3078125 H0 Z" class="node-bkg node-no-border" id="node-13"></path><line y2="37.3078125" x2="79.8359375" y1="37.3078125" x1="0" class="node-line-2"></line></g><g transform="translate(39.91796875, 5)" text-anchor="middle" dominant-baseline="middle" alignment-baseline="middle" dy="1em"><g><rect class="background"></rect><text y="-10.1"><tspan dy="1.1em" y="-0.1em" x="0" class="text-outer-tspan"><tspan font-weight="normal" class="text-inner-tspan" font-style="normal">Backend</tspan></tspan></text></g></g></g><g transform="translate(39.104972001664805, 242.52404771586507)" class="mindmap-node section-2"><g><path d="M0 32.3078125 v-27.307812499999997 q0,-5 5,-5 h37.8046875 q5,0 5,5 v32.3078125 H0 Z" class="node-bkg node-no-border" id="node-14"></path><line y2="37.3078125" x2="47.8046875" y1="37.3078125" x1="0" class="node-line-2"></line></g><g transform="translate(23.90234375, 5)" text-anchor="middle" dominant-baseline="middle" alignment-baseline="middle" dy="1em"><g><rect class="background"></rect><text y="-10.1"><tspan dy="1.1em" y="-0.1em" x="0" class="text-outer-tspan"><tspan font-weight="normal" class="text-inner-tspan" font-style="normal">RPC</tspan></tspan></text></g></g></g><g transform="translate(111.25370859484246, 290.83639707327416)" class="mindmap-node section-2"><g><path d="M0 32.3078125 v-27.307812499999997 q0,-5 5,-5 h39.46875 q5,0 5,5 v32.3078125 H0 Z" class="node-bkg node-no-border" id="node-15"></path><line y2="37.3078125" x2="49.46875" y1="37.3078125" x1="0" class="node-line-2"></line></g><g transform="translate(24.734375, 5)" text-anchor="middle" dominant-baseline="middle" alignment-baseline="middle" dy="1em"><g><rect class="background"></rect><text y="-10.1"><tspan dy="1.1em" y="-0.1em" x="0" class="text-outer-tspan"><tspan font-weight="normal" class="text-inner-tspan" font-style="normal">IPFS</tspan></tspan></text></g></g></g><g transform="translate(15, 172.0367750295312)" class="mindmap-node section-2"><g><path d="M0 32.3078125 v-27.307812499999997 q0,-5 5,-5 h57.5078125 q5,0 5,5 v32.3078125 H0 Z" class="node-bkg node-no-border" id="node-16"></path><line y2="37.3078125" x2="67.5078125" y1="37.3078125" x1="0" class="node-line-2"></line></g><g transform="translate(33.75390625, 5)" text-anchor="middle" dominant-baseline="middle" alignment-baseline="middle" dy="1em"><g><rect class="background"></rect><text y="-10.1"><tspan dy="1.1em" y="-0.1em" x="0" class="text-outer-tspan"><tspan font-weight="normal" class="text-inner-tspan" font-style="normal">Swarm</tspan></tspan></text></g></g></g><g transform="translate(100.52098404760955, 118.49346914592786)" class="mindmap-node section-2"><g><path d="M0 32.3078125 v-27.307812499999997 q0,-5 5,-5 h53.1015625 q5,0 5,5 v32.3078125 H0 Z" class="node-bkg node-no-border" id="node-17"></path><line y2="37.3078125" x2="63.1015625" y1="37.3078125" x1="0" class="node-line-2"></line></g><g transform="translate(31.55078125, 5)" text-anchor="middle" dominant-baseline="middle" alignment-baseline="middle" dy="1em"><g><rect class="background"></rect><text y="-10.1"><tspan dy="1.1em" y="-0.1em" x="0" class="text-outer-tspan"><tspan font-weight="normal" class="text-inner-tspan" font-style="normal">Graph</tspan></tspan></text></g></g></g><g transform="translate(471.3110715643479, 212.25763773249798)" class="mindmap-node section-3"><g><path d="M0 32.3078125 v-27.307812499999997 q0,-5 5,-5 h188.359375 q5,0 5,5 v32.3078125 H0 Z" class="node-bkg node-no-border" id="node-18"></path><line y2="37.3078125" x2="198.359375" y1="37.3078125" x1="0" class="node-line-3"></line></g><g transform="translate(99.1796875, 5)" text-anchor="middle" dominant-baseline="middle" alignment-baseline="middle" dy="1em"><g><rect class="background"></rect><text y="-10.1"><tspan dy="1.1em" y="-0.1em" x="0" class="text-outer-tspan"><tspan font-weight="normal" class="text-inner-tspan" font-style="normal">Toolchains</tspan><tspan font-weight="normal" class="text-inner-tspan" font-style="normal"> +</tspan><tspan font-weight="normal" class="text-inner-tspan" font-style="normal"> Frameworks</tspan></tspan></text></g></g></g><g transform="translate(586.9821280060305, 295.4357472687485)" class="mindmap-node section-3"><g><path d="M0 32.3078125 v-27.307812499999997 q0,-5 5,-5 h67.4921875 q5,0 5,5 v32.3078125 H0 Z" class="node-bkg node-no-border" id="node-19"></path><line y2="37.3078125" x2="77.4921875" y1="37.3078125" x1="0" class="node-line-3"></line></g><g transform="translate(38.74609375, 5)" text-anchor="middle" dominant-baseline="middle" alignment-baseline="middle" dy="1em"><g><rect class="background"></rect><text y="-10.1"><tspan dy="1.1em" y="-0.1em" x="0" class="text-outer-tspan"><tspan font-weight="normal" class="text-inner-tspan" font-style="normal">Foundry</tspan></tspan></text></g></g></g><g transform="translate(710.8976824646231, 252.99132361890358)" class="mindmap-node section-3"><g><path d="M0 32.3078125 v-27.307812499999997 q0,-5 5,-5 h67.5 q5,0 5,5 v32.3078125 H0 Z" class="node-bkg node-no-border" id="node-20"></path><line y2="37.3078125" x2="77.5" y1="37.3078125" x1="0" class="node-line-3"></line></g><g transform="translate(38.75, 5)" text-anchor="middle" dominant-baseline="middle" alignment-baseline="middle" dy="1em"><g><rect class="background"></rect><text y="-10.1"><tspan dy="1.1em" y="-0.1em" x="0" class="text-outer-tspan"><tspan font-weight="normal" class="text-inner-tspan" font-style="normal">Hardhat</tspan></tspan></text></g></g></g><g transform="translate(672.8102139924931, 160.4586399857793)" class="mindmap-node section-3"><g><path d="M0 32.3078125 v-27.307812499999997 q0,-5 5,-5 h57.765625 q5,0 5,5 v32.3078125 H0 Z" class="node-bkg node-no-border" id="node-21"></path><line y2="37.3078125" x2="67.765625" y1="37.3078125" x1="0" class="node-line-3"></line></g><g transform="translate(33.8828125, 5)" text-anchor="middle" dominant-baseline="middle" alignment-baseline="middle" dy="1em"><g><rect class="background"></rect><text y="-10.1"><tspan dy="1.1em" y="-0.1em" x="0" class="text-outer-tspan"><tspan font-weight="normal" class="text-inner-tspan" font-style="normal">Truffle</tspan></tspan></text></g></g></g><g transform="translate(441.00428213755276, 276.90896437752804)" class="mindmap-node section-3"><g><path d="M0 32.3078125 v-27.307812499999997 q0,-5 5,-5 h71.765625 q5,0 5,5 v32.3078125 H0 Z" class="node-bkg node-no-border" id="node-22"></path><line y2="37.3078125" x2="81.765625" y1="37.3078125" x1="0" class="node-line-3"></line></g><g transform="translate(40.8828125, 5)" text-anchor="middle" dominant-baseline="middle" alignment-baseline="middle" dy="1em"><g><rect class="background"></rect><text y="-10.1"><tspan dy="1.1em" y="-0.1em" x="0" class="text-outer-tspan"><tspan font-weight="normal" class="text-inner-tspan" font-style="normal">Ganache</tspan></tspan></text></g></g></g><g transform="translate(573.454624278135, 123.78320817886902)" class="mindmap-node section-3"><g><path d="M0 32.3078125 v-27.307812499999997 q0,-5 5,-5 h45.09375 q5,0 5,5 v32.3078125 H0 Z" class="node-bkg node-no-border" id="node-23"></path><line y2="37.3078125" x2="55.09375" y1="37.3078125" x1="0" class="node-line-3"></line></g><g transform="translate(27.546875, 5)" text-anchor="middle" dominant-baseline="middle" alignment-baseline="middle" dy="1em"><g><rect class="background"></rect><text y="-10.1"><tspan dy="1.1em" y="-0.1em" x="0" class="text-outer-tspan"><tspan font-weight="normal" class="text-inner-tspan" font-style="normal">Apex</tspan></tspan></text></g></g></g></g></g><defs><style id="svg-pan-zoom-controls-styles" type="text/css">.svg-pan-zoom-control { cursor: pointer; fill: black; fill-opacity: 0.333; } .svg-pan-zoom-control:hover { fill-opacity: 0.8; } .svg-pan-zoom-control-background { fill: white; fill-opacity: 0.5; } .svg-pan-zoom-control-background { fill-opacity: 0.8; }</style></defs><g id="svg-pan-zoom-controls" transform="translate(758 646) scale(0.75)" class="svg-pan-zoom-control"><g id="svg-pan-zoom-zoom-in" transform="translate(30.5 5) scale(0.015)" class="svg-pan-zoom-control"><rect x="0" y="0" width="1500" height="1400" class="svg-pan-zoom-control-background"></rect><path d="M1280 576v128q0 26 -19 45t-45 19h-320v320q0 26 -19 45t-45 19h-128q-26 0 -45 -19t-19 -45v-320h-320q-26 0 -45 -19t-19 -45v-128q0 -26 19 -45t45 -19h320v-320q0 -26 19 -45t45 -19h128q26 0 45 19t19 45v320h320q26 0 45 19t19 45zM1536 1120v-960 q0 -119 -84.5 -203.5t-203.5 -84.5h-960q-119 0 -203.5 84.5t-84.5 203.5v960q0 119 84.5 203.5t203.5 84.5h960q119 0 203.5 -84.5t84.5 -203.5z" class="svg-pan-zoom-control-element"></path></g><g id="svg-pan-zoom-reset-pan-zoom" transform="translate(5 35) scale(0.4)" class="svg-pan-zoom-control"><rect x="2" y="2" width="182" height="58" class="svg-pan-zoom-control-background"></rect><path d="M33.051,20.632c-0.742-0.406-1.854-0.609-3.338-0.609h-7.969v9.281h7.769c1.543,0,2.701-0.188,3.473-0.562c1.365-0.656,2.048-1.953,2.048-3.891C35.032,22.757,34.372,21.351,33.051,20.632z" class="svg-pan-zoom-control-element"></path><path d="M170.231,0.5H15.847C7.102,0.5,0.5,5.708,0.5,11.84v38.861C0.5,56.833,7.102,61.5,15.847,61.5h154.384c8.745,0,15.269-4.667,15.269-10.798V11.84C185.5,5.708,178.976,0.5,170.231,0.5z M42.837,48.569h-7.969c-0.219-0.766-0.375-1.383-0.469-1.852c-0.188-0.969-0.289-1.961-0.305-2.977l-0.047-3.211c-0.03-2.203-0.41-3.672-1.142-4.406c-0.732-0.734-2.103-1.102-4.113-1.102h-7.05v13.547h-7.055V14.022h16.524c2.361,0.047,4.178,0.344,5.45,0.891c1.272,0.547,2.351,1.352,3.234,2.414c0.731,0.875,1.31,1.844,1.737,2.906s0.64,2.273,0.64,3.633c0,1.641-0.414,3.254-1.242,4.84s-2.195,2.707-4.102,3.363c1.594,0.641,2.723,1.551,3.387,2.73s0.996,2.98,0.996,5.402v2.32c0,1.578,0.063,2.648,0.19,3.211c0.19,0.891,0.635,1.547,1.333,1.969V48.569z M75.579,48.569h-26.18V14.022h25.336v6.117H56.454v7.336h16.781v6H56.454v8.883h19.125V48.569z M104.497,46.331c-2.44,2.086-5.887,3.129-10.34,3.129c-4.548,0-8.125-1.027-10.731-3.082s-3.909-4.879-3.909-8.473h6.891c0.224,1.578,0.662,2.758,1.316,3.539c1.196,1.422,3.246,2.133,6.15,2.133c1.739,0,3.151-0.188,4.236-0.562c2.058-0.719,3.087-2.055,3.087-4.008c0-1.141-0.504-2.023-1.512-2.648c-1.008-0.609-2.607-1.148-4.796-1.617l-3.74-0.82c-3.676-0.812-6.201-1.695-7.576-2.648c-2.328-1.594-3.492-4.086-3.492-7.477c0-3.094,1.139-5.664,3.417-7.711s5.623-3.07,10.036-3.07c3.685,0,6.829,0.965,9.431,2.895c2.602,1.93,3.966,4.73,4.093,8.402h-6.938c-0.128-2.078-1.057-3.555-2.787-4.43c-1.154-0.578-2.587-0.867-4.301-0.867c-1.907,0-3.428,0.375-4.565,1.125c-1.138,0.75-1.706,1.797-1.706,3.141c0,1.234,0.561,2.156,1.682,2.766c0.721,0.406,2.25,0.883,4.589,1.43l6.063,1.43c2.657,0.625,4.648,1.461,5.975,2.508c2.059,1.625,3.089,3.977,3.089,7.055C108.157,41.624,106.937,44.245,104.497,46.331z M139.61,48.569h-26.18V14.022h25.336v6.117h-18.281v7.336h16.781v6h-16.781v8.883h19.125V48.569z M170.337,20.14h-10.336v28.43h-7.266V20.14h-10.383v-6.117h27.984V20.14z" class="svg-pan-zoom-control-element"></path></g><g id="svg-pan-zoom-zoom-out" transform="translate(30.5 70) scale(0.015)" class="svg-pan-zoom-control"><rect x="0" y="0" width="1500" height="1400" class="svg-pan-zoom-control-background"></rect><path d="M1280 576v128q0 26 -19 45t-45 19h-896q-26 0 -45 -19t-19 -45v-128q0 -26 19 -45t45 -19h896q26 0 45 19t19 45zM1536 1120v-960q0 -119 -84.5 -203.5t-203.5 -84.5h-960q-119 0 -203.5 84.5t-84.5 203.5v960q0 119 84.5 203.5t203.5 84.5h960q119 0 203.5 -84.5 t84.5 -203.5z" class="svg-pan-zoom-control-element"></path></g></g></svg>