<svg id="mermaid-svg" width="100%" xmlns="http://www.w3.org/2000/svg" style="max-width: 706.234619140625px;" viewBox="5 5 706.234619140625 425.6651916503906" role="graphics-document document" aria-roledescription="mindmap" xmlns:xlink="http://www.w3.org/1999/xlink"><style>#mermaid-svg{font-family:"trebuchet ms",verdana,arial,sans-serif;font-size:16px;fill:#333;}#mermaid-svg .error-icon{fill:#552222;}#mermaid-svg .error-text{fill:#552222;stroke:#552222;}#mermaid-svg .edge-thickness-normal{stroke-width:2px;}#mermaid-svg .edge-thickness-thick{stroke-width:3.5px;}#mermaid-svg .edge-pattern-solid{stroke-dasharray:0;}#mermaid-svg .edge-pattern-dashed{stroke-dasharray:3;}#mermaid-svg .edge-pattern-dotted{stroke-dasharray:2;}#mermaid-svg .marker{fill:#333333;stroke:#333333;}#mermaid-svg .marker.cross{stroke:#333333;}#mermaid-svg svg{font-family:"trebuchet ms",verdana,arial,sans-serif;font-size:16px;}#mermaid-svg .edge{stroke-width:3;}#mermaid-svg .section--1 rect,#mermaid-svg .section--1 path,#mermaid-svg .section--1 circle,#mermaid-svg .section--1 polygon,#mermaid-svg .section--1 path{fill:hsl(240, 100%, 76.2745098039%);}#mermaid-svg .section--1 text{fill:#ffffff;}#mermaid-svg .node-icon--1{font-size:40px;color:#ffffff;}#mermaid-svg .section-edge--1{stroke:hsl(240, 100%, 76.2745098039%);}#mermaid-svg .edge-depth--1{stroke-width:17;}#mermaid-svg .section--1 line{stroke:hsl(60, 100%, 86.2745098039%);stroke-width:3;}#mermaid-svg .disabled,#mermaid-svg .disabled circle,#mermaid-svg .disabled text{fill:lightgray;}#mermaid-svg .disabled text{fill:#efefef;}#mermaid-svg .section-0 rect,#mermaid-svg .section-0 path,#mermaid-svg .section-0 circle,#mermaid-svg .section-0 polygon,#mermaid-svg .section-0 path{fill:hsl(60, 100%, 73.5294117647%);}#mermaid-svg .section-0 text{fill:black;}#mermaid-svg .node-icon-0{font-size:40px;color:black;}#mermaid-svg .section-edge-0{stroke:hsl(60, 100%, 73.5294117647%);}#mermaid-svg .edge-depth-0{stroke-width:14;}#mermaid-svg .section-0 line{stroke:hsl(240, 100%, 83.5294117647%);stroke-width:3;}#mermaid-svg .disabled,#mermaid-svg .disabled circle,#mermaid-svg .disabled text{fill:lightgray;}#mermaid-svg .disabled text{fill:#efefef;}#mermaid-svg .section-1 rect,#mermaid-svg .section-1 path,#mermaid-svg .section-1 circle,#mermaid-svg .section-1 polygon,#mermaid-svg .section-1 path{fill:hsl(80, 100%, 76.2745098039%);}#mermaid-svg .section-1 text{fill:black;}#mermaid-svg .node-icon-1{font-size:40px;color:black;}#mermaid-svg .section-edge-1{stroke:hsl(80, 100%, 76.2745098039%);}#mermaid-svg .edge-depth-1{stroke-width:11;}#mermaid-svg .section-1 line{stroke:hsl(260, 100%, 86.2745098039%);stroke-width:3;}#mermaid-svg .disabled,#mermaid-svg .disabled circle,#mermaid-svg .disabled text{fill:lightgray;}#mermaid-svg .disabled text{fill:#efefef;}#mermaid-svg .section-2 rect,#mermaid-svg .section-2 path,#mermaid-svg .section-2 circle,#mermaid-svg .section-2 polygon,#mermaid-svg .section-2 path{fill:hsl(270, 100%, 76.2745098039%);}#mermaid-svg .section-2 text{fill:#ffffff;}#mermaid-svg .node-icon-2{font-size:40px;color:#ffffff;}#mermaid-svg .section-edge-2{stroke:hsl(270, 100%, 76.2745098039%);}#mermaid-svg .edge-depth-2{stroke-width:8;}#mermaid-svg .section-2 line{stroke:hsl(90, 100%, 86.2745098039%);stroke-width:3;}#mermaid-svg .disabled,#mermaid-svg .disabled circle,#mermaid-svg .disabled text{fill:lightgray;}#mermaid-svg .disabled text{fill:#efefef;}#mermaid-svg .section-3 rect,#mermaid-svg .section-3 path,#mermaid-svg .section-3 circle,#mermaid-svg .section-3 polygon,#mermaid-svg .section-3 path{fill:hsl(300, 100%, 76.2745098039%);}#mermaid-svg .section-3 text{fill:black;}#mermaid-svg .node-icon-3{font-size:40px;color:black;}#mermaid-svg .section-edge-3{stroke:hsl(300, 100%, 76.2745098039%);}#mermaid-svg .edge-depth-3{stroke-width:5;}#mermaid-svg .section-3 line{stroke:hsl(120, 100%, 86.2745098039%);stroke-width:3;}#mermaid-svg .disabled,#mermaid-svg .disabled circle,#mermaid-svg .disabled text{fill:lightgray;}#mermaid-svg .disabled text{fill:#efefef;}#mermaid-svg .section-4 rect,#mermaid-svg .section-4 path,#mermaid-svg .section-4 circle,#mermaid-svg .section-4 polygon,#mermaid-svg .section-4 path{fill:hsl(330, 100%, 76.2745098039%);}#mermaid-svg .section-4 text{fill:black;}#mermaid-svg .node-icon-4{font-size:40px;color:black;}#mermaid-svg .section-edge-4{stroke:hsl(330, 100%, 76.2745098039%);}#mermaid-svg .edge-depth-4{stroke-width:2;}#mermaid-svg .section-4 line{stroke:hsl(150, 100%, 86.2745098039%);stroke-width:3;}#mermaid-svg .disabled,#mermaid-svg .disabled circle,#mermaid-svg .disabled text{fill:lightgray;}#mermaid-svg .disabled text{fill:#efefef;}#mermaid-svg .section-5 rect,#mermaid-svg .section-5 path,#mermaid-svg .section-5 circle,#mermaid-svg .section-5 polygon,#mermaid-svg .section-5 path{fill:hsl(0, 100%, 76.2745098039%);}#mermaid-svg .section-5 text{fill:black;}#mermaid-svg .node-icon-5{font-size:40px;color:black;}#mermaid-svg .section-edge-5{stroke:hsl(0, 100%, 76.2745098039%);}#mermaid-svg .edge-depth-5{stroke-width:-1;}#mermaid-svg .section-5 line{stroke:hsl(180, 100%, 86.2745098039%);stroke-width:3;}#mermaid-svg .disabled,#mermaid-svg .disabled circle,#mermaid-svg .disabled text{fill:lightgray;}#mermaid-svg .disabled text{fill:#efefef;}#mermaid-svg .section-6 rect,#mermaid-svg .section-6 path,#mermaid-svg .section-6 circle,#mermaid-svg .section-6 polygon,#mermaid-svg .section-6 path{fill:hsl(30, 100%, 76.2745098039%);}#mermaid-svg .section-6 text{fill:black;}#mermaid-svg .node-icon-6{font-size:40px;color:black;}#mermaid-svg .section-edge-6{stroke:hsl(30, 100%, 76.2745098039%);}#mermaid-svg .edge-depth-6{stroke-width:-4;}#mermaid-svg .section-6 line{stroke:hsl(210, 100%, 86.2745098039%);stroke-width:3;}#mermaid-svg .disabled,#mermaid-svg .disabled circle,#mermaid-svg .disabled text{fill:lightgray;}#mermaid-svg .disabled text{fill:#efefef;}#mermaid-svg .section-7 rect,#mermaid-svg .section-7 path,#mermaid-svg .section-7 circle,#mermaid-svg .section-7 polygon,#mermaid-svg .section-7 path{fill:hsl(90, 100%, 76.2745098039%);}#mermaid-svg .section-7 text{fill:black;}#mermaid-svg .node-icon-7{font-size:40px;color:black;}#mermaid-svg .section-edge-7{stroke:hsl(90, 100%, 76.2745098039%);}#mermaid-svg .edge-depth-7{stroke-width:-7;}#mermaid-svg .section-7 line{stroke:hsl(270, 100%, 86.2745098039%);stroke-width:3;}#mermaid-svg .disabled,#mermaid-svg .disabled circle,#mermaid-svg .disabled text{fill:lightgray;}#mermaid-svg .disabled text{fill:#efefef;}#mermaid-svg .section-8 rect,#mermaid-svg .section-8 path,#mermaid-svg .section-8 circle,#mermaid-svg .section-8 polygon,#mermaid-svg .section-8 path{fill:hsl(150, 100%, 76.2745098039%);}#mermaid-svg .section-8 text{fill:black;}#mermaid-svg .node-icon-8{font-size:40px;color:black;}#mermaid-svg .section-edge-8{stroke:hsl(150, 100%, 76.2745098039%);}#mermaid-svg .edge-depth-8{stroke-width:-10;}#mermaid-svg .section-8 line{stroke:hsl(330, 100%, 86.2745098039%);stroke-width:3;}#mermaid-svg .disabled,#mermaid-svg .disabled circle,#mermaid-svg .disabled text{fill:lightgray;}#mermaid-svg .disabled text{fill:#efefef;}#mermaid-svg .section-9 rect,#mermaid-svg .section-9 path,#mermaid-svg .section-9 circle,#mermaid-svg .section-9 polygon,#mermaid-svg .section-9 path{fill:hsl(180, 100%, 76.2745098039%);}#mermaid-svg .section-9 text{fill:black;}#mermaid-svg .node-icon-9{font-size:40px;color:black;}#mermaid-svg .section-edge-9{stroke:hsl(180, 100%, 76.2745098039%);}#mermaid-svg .edge-depth-9{stroke-width:-13;}#mermaid-svg .section-9 line{stroke:hsl(0, 100%, 86.2745098039%);stroke-width:3;}#mermaid-svg .disabled,#mermaid-svg .disabled circle,#mermaid-svg .disabled text{fill:lightgray;}#mermaid-svg .disabled text{fill:#efefef;}#mermaid-svg .section-10 rect,#mermaid-svg .section-10 path,#mermaid-svg .section-10 circle,#mermaid-svg .section-10 polygon,#mermaid-svg .section-10 path{fill:hsl(210, 100%, 76.2745098039%);}#mermaid-svg .section-10 text{fill:black;}#mermaid-svg .node-icon-10{font-size:40px;color:black;}#mermaid-svg .section-edge-10{stroke:hsl(210, 100%, 76.2745098039%);}#mermaid-svg .edge-depth-10{stroke-width:-16;}#mermaid-svg .section-10 line{stroke:hsl(30, 100%, 86.2745098039%);stroke-width:3;}#mermaid-svg .disabled,#mermaid-svg .disabled circle,#mermaid-svg .disabled text{fill:lightgray;}#mermaid-svg .disabled text{fill:#efefef;}#mermaid-svg .section-root rect,#mermaid-svg .section-root path,#mermaid-svg .section-root circle,#mermaid-svg .section-root polygon{fill:hsl(240, 100%, 46.2745098039%);}#mermaid-svg .section-root text{fill:#ffffff;}#mermaid-svg .icon-container{height:100%;display:flex;justify-content:center;align-items:center;}#mermaid-svg .edge{fill:none;}#mermaid-svg .mindmap-node-label{dy:1em;alignment-baseline:middle;text-anchor:middle;dominant-baseline:middle;text-align:center;}#mermaid-svg :root{--mermaid-font-family:"trebuchet ms",verdana,arial,sans-serif;}</style><g></g><g></g><g class="mindmap-edges"><path d="M 511.8766658018035,163.32267904635916 L 542.5058399597526,189.84036685277945 L573.1350141177018,216.35805465919975 " class="edge section-edge-0 edge-depth-1"></path><path d="M 501.1187957412017,138.51587247359183 L 502.4135022875048,105.20217427076742 L503.7082088338079,71.88847606794299 " class="edge section-edge-0 edge-depth-1"></path><path d="M 513.5209415370518,145.9946694714333 L 558.523666575822,119.96663187526153 L603.5263916145921,93.93859427908976 " class="edge section-edge-0 edge-depth-1"></path><path d="M 494.2235081049636,167.1115033539735 L 481.4414963371605,194.66268217057637 L468.6594845693574,222.21386098717932 " class="edge section-edge-0 edge-depth-1"></path><path d="M 515.507218295858,154.4377407713409 L 577.529971733216,158.30380403062148 L639.552725170574,162.16986728990204 " class="edge section-edge-0 edge-depth-1"></path><path d="M 353.07622718322295,202.7964128186698 L 419.69313284516807,180.5282054926375 L486.3100385071132,158.25999816660521 " class="edge section-edge-0 edge-depth-0"></path><path d="M 417.7472302924975,314.2395499759202 L 457.9526846754669,341.32269413869875 L498.15813905843635,368.4058383014773 " class="edge section-edge-1 edge-depth-1"></path><path d="M 392.69491528182874,313.98004268966895 L 352.0350643698416,340.16141329458793 L311.3752134578545,366.3427838995069 " class="edge section-edge-1 edge-depth-1"></path><path d="M 420.3032496577771,306.17328087330816 L 483.69631665114866,307.5006595615266 L547.0893836445202,308.8280382497451 " class="edge section-edge-1 edge-depth-1"></path><path d="M 390.68893518651544,302.4938958099814 L 347.61179121859595,292.5763612652396 L304.53464725067647,282.6588267204978 " class="edge section-edge-1 edge-depth-1"></path><path d="M 403.63167671024405,320.7654682839733 L 399.91854371817965,353.81223286058713 L396.20541072611525,386.85899743720097 " class="edge section-edge-1 edge-depth-1"></path><path d="M 347.2506832764238,219.97877533548234 L 372.0782641888703,256.7055602988662 L396.90584510131686,293.43234526225 " class="edge section-edge-1 edge-depth-0"></path><path d="M 191.67556232867514,279.86838257632405 L 193.54686360798405,311.654510329949 L195.41816488729296,343.44063808357396 " class="edge section-edge-2 edge-depth-1"></path><path d="M 182.6404541553787,252.30385810951273 L 164.89564189472367,224.90292022941674 L147.15082963406863,197.50198234932077 " class="edge section-edge-2 edge-depth-1"></path><path d="M 175.8122746826807,264.15438885214854 L 124.75891116836914,261.6329577695688 L73.70554765405757,259.11152668698907 " class="edge section-edge-2 edge-depth-1"></path><path d="M 179.1124083682627,274.3038833918097 L 144.8747612407077,301.8824274488355 L110.6371141131527,329.46097150586127 " class="edge section-edge-2 edge-depth-1"></path><path d="M 324.8624391958813,212.96926830762064 L 264.82200284696535,236.22308152383454 L204.78156649804944,259.47689474004846 " class="edge section-edge-2 edge-depth-0"></path><path d="M 240.13762218287889,116.67683026788097 L 268.6966267468704,88.39919715931862 L297.2556313108619,60.12156405075625 " class="edge section-edge-3 edge-depth-1"></path><path d="M 225.05368668901218,112.89832201738696 L 215.07133547194974,80.56539718205786 L205.0889842548873,48.23247234672877 " class="edge section-edge-3 edge-depth-1"></path><path d="M 244.31080727435776,124.9931848160281 L 319.1684291057601,113.70001654984176 L394.0260509371624,102.40684828365542 " class="edge section-edge-3 edge-depth-1"></path><path d="M 215.69670443773305,121.3097998988209 L 159.37115789240374,97.11122630168919 L103.04561134707443,72.91265270455747 " class="edge section-edge-3 edge-depth-1"></path><path d="M 214.53435978748263,128.5224621858063 L 136.01275889130426,135.30925986745493 L57.49115799512589,142.09605754910356 " class="edge section-edge-3 edge-depth-1"></path><path d="M 326.7600028881469,198.673105343836 L 284.1643171569259,167.39132409506547 L241.56863142570492,136.10954284629494 " class="edge section-edge-3 edge-depth-0"></path></g><g class="mindmap-nodes"><g class="mindmap-node section--1 section-root" transform="translate(296.4867102812433, 188.6518538260152)" attr="apa-0)"><g><path id="node-0" class="node-bkg node-cloud" d="M0 0 a12.708984375,12.708984375 0 0,1 21.181640625,-8.47265625
      a29.654296874999996,29.654296874999996 1 0,1 33.890625,-8.47265625
      a21.181640625,21.181640625 1 0,1 29.654296874999996,16.9453125

      a12.708984375,12.708984375 1 0,1 12.708984375,13.229999999999999
      a16.9453125,16.9453125 1 0,1 -12.708984375,24.57

      a21.181640625,12.708984375 1 0,1 -21.181640625,12.708984375
      a29.654296874999996,29.654296874999996 1 0,1 -42.36328125,0
      a12.708984375,12.708984375 1 0,1 -21.181640625,-12.708984375

      a12.708984375,12.708984375 1 0,1 -8.47265625,-13.229999999999999
      a16.9453125,16.9453125 1 0,1 8.47265625,-24.57

    H0 V0 Z"></path></g><g dy="1em" alignment-baseline="middle" dominant-baseline="middle" text-anchor="middle" transform="translate(42.36328125, 5)"><g><rect class="background"></rect><text y="-10.1"><tspan class="text-outer-tspan" x="0" y="-0.1em" dy="1.1em"><tspan font-style="normal" class="text-inner-tspan" font-weight="normal">Fullstack</tspan></tspan></text></g></g></g><g class="mindmap-node section-0" transform="translate(453.70033665909284, 134.6045571592598)" attr="apa-1)"><g><path id="node-1" class="node-bkg node-no-border" d="M0 32.8 v-27.799999999999997 q0,-5 5,-5 h83.671875 q5,0 5,5 v32.8 H0 Z"></path><line class="node-line-0" x1="0" y1="37.8" x2="93.671875" y2="37.8"></line></g><g dy="1em" alignment-baseline="middle" dominant-baseline="middle" text-anchor="middle" transform="translate(46.8359375, 5)"><g><rect class="background"></rect><text y="-10.1"><tspan class="text-outer-tspan" x="0" y="-0.1em" dy="1.1em"><tspan font-style="normal" class="text-inner-tspan" font-weight="normal">Languages</tspan></tspan></text></g></g></g><g class="mindmap-node section-0" transform="translate(547.7839995104124, 207.2761765462991)" attr="apa-2)"><g><path id="node-2" class="node-bkg node-no-border" d="M0 32.8 v-27.799999999999997 q0,-5 5,-5 h63.3828125 q5,0 5,5 v32.8 H0 Z"></path><line class="node-line-0" x1="0" y1="37.8" x2="73.3828125" y2="37.8"></line></g><g dy="1em" alignment-baseline="middle" dominant-baseline="middle" text-anchor="middle" transform="translate(36.69140625, 5)"><g><rect class="background"></rect><text y="-10.1"><tspan class="text-outer-tspan" x="0" y="-0.1em" dy="1.1em"><tspan font-style="normal" class="text-inner-tspan" font-weight="normal">Solidity</tspan></tspan></text></g></g></g><g class="mindmap-node section-0" transform="translate(473.62276166591676, 37.99979138227502)" attr="apa-3)"><g><path id="node-3" class="node-bkg node-no-border" d="M0 32.8 v-27.799999999999997 q0,-5 5,-5 h51.3359375 q5,0 5,5 v32.8 H0 Z"></path><line class="node-line-0" x1="0" y1="37.8" x2="61.3359375" y2="37.8"></line></g><g dy="1em" alignment-baseline="middle" dominant-baseline="middle" text-anchor="middle" transform="translate(30.66796875, 5)"><g><rect class="background"></rect><text y="-10.1"><tspan class="text-outer-tspan" x="0" y="-0.1em" dy="1.1em"><tspan font-style="normal" class="text-inner-tspan" font-weight="normal">Vyper</tspan></tspan></text></g></g></g><g class="mindmap-node section-0" transform="translate(570.151683992551, 67.52870659126324)" attr="apa-4)"><g><path id="node-4" class="node-bkg node-no-border" d="M0 32.8 v-27.799999999999997 q0,-5 5,-5 h82.71875 q5,0 5,5 v32.8 H0 Z"></path><line class="node-line-0" x1="0" y1="37.8" x2="92.71875" y2="37.8"></line></g><g dy="1em" alignment-baseline="middle" dominant-baseline="middle" text-anchor="middle" transform="translate(46.359375, 5)"><g><rect class="background"></rect><text y="-10.1"><tspan class="text-outer-tspan" x="0" y="-0.1em" dy="1.1em"><tspan font-style="normal" class="text-inner-tspan" font-weight="normal">Javascript</tspan></tspan></text></g></g></g><g class="mindmap-node section-0" transform="translate(427.7295310152282, 216.920807181893)" attr="apa-5)"><g><path id="node-5" class="node-bkg node-no-border" d="M0 32.8 v-27.799999999999997 q0,-5 5,-5 h59.234375 q5,0 5,5 v32.8 H0 Z"></path><line class="node-line-0" x1="0" y1="37.8" x2="69.234375" y2="37.8"></line></g><g dy="1em" alignment-baseline="middle" dominant-baseline="middle" text-anchor="middle" transform="translate(34.6171875, 5)"><g><rect class="background"></rect><text y="-10.1"><tspan class="text-outer-tspan" x="0" y="-0.1em" dy="1.1em"><tspan font-style="normal" class="text-inner-tspan" font-weight="normal">Python</tspan></tspan></text></g></g></g><g class="mindmap-node section-0" transform="translate(607.8127318073392, 144.20305090198315)" attr="apa-6)"><g><path id="node-6" class="node-bkg node-no-border" d="M0 32.8 v-27.799999999999997 q0,-5 5,-5 h83.421875 q5,0 5,5 v32.8 H0 Z"></path><line class="node-line-0" x1="0" y1="37.8" x2="93.421875" y2="37.8"></line></g><g dy="1em" alignment-baseline="middle" dominant-baseline="middle" text-anchor="middle" transform="translate(46.7109375, 5)"><g><rect class="background"></rect><text y="-10.1"><tspan class="text-outer-tspan" x="0" y="-0.1em" dy="1.1em"><tspan font-style="normal" class="text-inner-tspan" font-weight="normal">Typescript</tspan></tspan></text></g></g></g><g class="mindmap-node section-1" transform="translate(362.97059934649735, 286.9592667717171)" attr="apa-7)"><g><path id="node-7" class="node-bkg node-no-border" d="M0 32.8 v-27.799999999999997 q0,-5 5,-5 h74.671875 q5,0 5,5 v32.8 H0 Z"></path><line class="node-line-1" x1="0" y1="37.8" x2="84.671875" y2="37.8"></line></g><g dy="1em" alignment-baseline="middle" dominant-baseline="middle" text-anchor="middle" transform="translate(42.3359375, 5)"><g><rect class="background"></rect><text y="-10.1"><tspan class="text-outer-tspan" x="0" y="-0.1em" dy="1.1em"><tspan font-style="normal" class="text-inner-tspan" font-weight="normal">Frontend</tspan></tspan></text></g></g></g><g class="mindmap-node section-1" transform="translate(459.6418012544365, 357.8861215056804)" attr="apa-8)"><g><path id="node-8" class="node-bkg node-no-border" d="M0 32.8 v-27.799999999999997 q0,-5 5,-5 h91.9140625 q5,0 5,5 v32.8 H0 Z"></path><line class="node-line-1" x1="0" y1="37.8" x2="101.9140625" y2="37.8"></line></g><g dy="1em" alignment-baseline="middle" dominant-baseline="middle" text-anchor="middle" transform="translate(50.95703125, 5)"><g><rect class="background"></rect><text y="-10.1"><tspan class="text-outer-tspan" x="0" y="-0.1em" dy="1.1em"><tspan font-style="normal" class="text-inner-tspan" font-weight="normal">HTML + CSS</tspan></tspan></text></g></g></g><g class="mindmap-node section-1" transform="translate(268.7323418931859, 355.5635598174588)" attr="apa-9)"><g><path id="node-9" class="node-bkg node-no-border" d="M0 32.8 v-27.799999999999997 q0,-5 5,-5 h50.0625 q5,0 5,5 v32.8 H0 Z"></path><line class="node-line-1" x1="0" y1="37.8" x2="60.0625" y2="37.8"></line></g><g dy="1em" alignment-baseline="middle" dominant-baseline="middle" text-anchor="middle" transform="translate(30.03125, 5)"><g><rect class="background"></rect><text y="-10.1"><tspan class="text-outer-tspan" x="0" y="-0.1em" dy="1.1em"><tspan font-style="normal" class="text-inner-tspan" font-weight="normal">React</tspan></tspan></text></g></g></g><g class="mindmap-node section-1" transform="translate(506.4650027058, 290.24205235133616)" attr="apa-10)"><g><path id="node-10" class="node-bkg node-no-border" d="M0 32.8 v-27.799999999999997 q0,-5 5,-5 h101.2421875 q5,0 5,5 v32.8 H0 Z"></path><line class="node-line-1" x1="0" y1="37.8" x2="111.2421875" y2="37.8"></line></g><g dy="1em" alignment-baseline="middle" dominant-baseline="middle" text-anchor="middle" transform="translate(55.62109375, 5)"><g><rect class="background"></rect><text y="-10.1"><tspan class="text-outer-tspan" x="0" y="-0.1em" dy="1.1em"><tspan font-style="normal" class="text-inner-tspan" font-weight="normal">React Native</tspan></tspan></text></g></g></g><g class="mindmap-node section-1" transform="translate(262.07329559069456, 260.3934557587621)" attr="apa-11)"><g><path id="node-11" class="node-bkg node-no-border" d="M0 32.8 v-27.799999999999997 q0,-5 5,-5 h45.6875 q5,0 5,5 v32.8 H0 Z"></path><line class="node-line-1" x1="0" y1="37.8" x2="55.6875" y2="37.8"></line></g><g dy="1em" alignment-baseline="middle" dominant-baseline="middle" text-anchor="middle" transform="translate(27.84375, 5)"><g><rect class="background"></rect><text y="-10.1"><tspan class="text-outer-tspan" x="0" y="-0.1em" dy="1.1em"><tspan font-style="normal" class="text-inner-tspan" font-weight="normal">Viem</tspan></tspan></text></g></g></g><g class="mindmap-node section-1" transform="translate(361.01492558986195, 382.8651989494572)" attr="apa-12)"><g><path id="node-12" class="node-bkg node-no-border" d="M0 32.8 v-27.799999999999997 q0,-5 5,-5 h57.03125 q5,0 5,5 v32.8 H0 Z"></path><line class="node-line-1" x1="0" y1="37.8" x2="67.03125" y2="37.8"></line></g><g dy="1em" alignment-baseline="middle" dominant-baseline="middle" text-anchor="middle" transform="translate(33.515625, 5)"><g><rect class="background"></rect><text y="-10.1"><tspan class="text-outer-tspan" x="0" y="-0.1em" dy="1.1em"><tspan font-style="normal" class="text-inner-tspan" font-weight="normal">Wagmi</tspan></tspan></text></g></g></g><g class="mindmap-node section-2" transform="translate(150.8721391626874, 245.99430922165388)" attr="apa-13)"><g><path id="node-13" class="node-bkg node-no-border" d="M0 32.8 v-27.799999999999997 q0,-5 5,-5 h69.84375 q5,0 5,5 v32.8 H0 Z"></path><line class="node-line-2" x1="0" y1="37.8" x2="79.84375" y2="37.8"></line></g><g dy="1em" alignment-baseline="middle" dominant-baseline="middle" text-anchor="middle" transform="translate(39.921875, 5)"><g><rect class="background"></rect><text y="-10.1"><tspan class="text-outer-tspan" x="0" y="-0.1em" dy="1.1em"><tspan font-style="normal" class="text-inner-tspan" font-weight="normal">Backend</tspan></tspan></text></g></g></g><g class="mindmap-node section-2" transform="translate(172.3934630532807, 339.51471143824415)" attr="apa-14)"><g><path id="node-14" class="node-bkg node-no-border" d="M0 32.8 v-27.799999999999997 q0,-5 5,-5 h37.8125 q5,0 5,5 v32.8 H0 Z"></path><line class="node-line-2" x1="0" y1="37.8" x2="47.8125" y2="37.8"></line></g><g dy="1em" alignment-baseline="middle" dominant-baseline="middle" text-anchor="middle" transform="translate(23.90625, 5)"><g><rect class="background"></rect><text y="-10.1"><tspan class="text-outer-tspan" x="0" y="-0.1em" dy="1.1em"><tspan font-style="normal" class="text-inner-tspan" font-weight="normal">RPC</tspan></tspan></text></g></g></g><g class="mindmap-node section-2" transform="translate(114.11055087675993, 166.0115312371796)" attr="apa-15)"><g><path id="node-15" class="node-bkg node-no-border" d="M0 32.8 v-27.799999999999997 q0,-5 5,-5 h39.7734375 q5,0 5,5 v32.8 H0 Z"></path><line class="node-line-2" x1="0" y1="37.8" x2="49.7734375" y2="37.8"></line></g><g dy="1em" alignment-baseline="middle" dominant-baseline="middle" text-anchor="middle" transform="translate(24.88671875, 5)"><g><rect class="background"></rect><text y="-10.1"><tspan class="text-outer-tspan" x="0" y="-0.1em" dy="1.1em"><tspan font-style="normal" class="text-inner-tspan" font-weight="normal">IPFS</tspan></tspan></text></g></g></g><g class="mindmap-node section-2" transform="translate(24.965995674050873, 239.47160631748372)" attr="apa-16)"><g><path id="node-16" class="node-bkg node-no-border" d="M0 32.8 v-27.799999999999997 q0,-5 5,-5 h57.515625 q5,0 5,5 v32.8 H0 Z"></path><line class="node-line-2" x1="0" y1="37.8" x2="67.515625" y2="37.8"></line></g><g dy="1em" alignment-baseline="middle" dominant-baseline="middle" text-anchor="middle" transform="translate(33.7578125, 5)"><g><rect class="background"></rect><text y="-10.1"><tspan class="text-outer-tspan" x="0" y="-0.1em" dy="1.1em"><tspan font-style="normal" class="text-inner-tspan" font-weight="normal">Swarm</tspan></tspan></text></g></g></g><g class="mindmap-node section-2" transform="translate(67.400820818728, 319.9705456760171)" attr="apa-17)"><g><path id="node-17" class="node-bkg node-no-border" d="M0 32.8 v-27.799999999999997 q0,-5 5,-5 h53.109375 q5,0 5,5 v32.8 H0 Z"></path><line class="node-line-2" x1="0" y1="37.8" x2="63.109375" y2="37.8"></line></g><g dy="1em" alignment-baseline="middle" dominant-baseline="middle" text-anchor="middle" transform="translate(31.5546875, 5)"><g><rect class="background"></rect><text y="-10.1"><tspan class="text-outer-tspan" x="0" y="-0.1em" dy="1.1em"><tspan font-style="normal" class="text-inner-tspan" font-weight="normal">Graph</tspan></tspan></text></g></g></g><g class="mindmap-node section-3" transform="translate(130.29895528260852, 108.33079436411572)" attr="apa-18)"><g><path id="node-18" class="node-bkg node-no-border" d="M0 32.8 v-27.799999999999997 q0,-5 5,-5 h188.359375 q5,0 5,5 v32.8 H0 Z"></path><line class="node-line-3" x1="0" y1="37.8" x2="198.359375" y2="37.8"></line></g><g dy="1em" alignment-baseline="middle" dominant-baseline="middle" text-anchor="middle" transform="translate(99.1796875, 5)"><g><rect class="background"></rect><text y="-10.1"><tspan class="text-outer-tspan" x="0" y="-0.1em" dy="1.1em"><tspan font-style="normal" class="text-inner-tspan" font-weight="normal">Toolchains + Frameworks</tspan></tspan></text></g></g></g><g class="mindmap-node section-3" transform="translate(269.11382946113224, 30.667599954521506)" attr="apa-19)"><g><path id="node-19" class="node-bkg node-no-border" d="M0 32.8 v-27.799999999999997 q0,-5 5,-5 h67.6015625 q5,0 5,5 v32.8 H0 Z"></path><line class="node-line-3" x1="0" y1="37.8" x2="77.6015625" y2="37.8"></line></g><g dy="1em" alignment-baseline="middle" dominant-baseline="middle" text-anchor="middle" transform="translate(38.80078125, 5)"><g><rect class="background"></rect><text y="-10.1"><tspan class="text-outer-tspan" x="0" y="-0.1em" dy="1.1em"><tspan font-style="normal" class="text-inner-tspan" font-weight="normal">Foundry</tspan></tspan></text></g></g></g><g class="mindmap-node section-3" transform="translate(161.91402816129096, 15)" attr="apa-20)"><g><path id="node-20" class="node-bkg node-no-border" d="M0 32.8 v-27.799999999999997 q0,-5 5,-5 h67.5 q5,0 5,5 v32.8 H0 Z"></path><line class="node-line-3" x1="0" y1="37.8" x2="77.5" y2="37.8"></line></g><g dy="1em" alignment-baseline="middle" dominant-baseline="middle" text-anchor="middle" transform="translate(38.75, 5)"><g><rect class="background"></rect><text y="-10.1"><tspan class="text-outer-tspan" x="0" y="-0.1em" dy="1.1em"><tspan font-style="normal" class="text-inner-tspan" font-weight="normal">Hardhat</tspan></tspan></text></g></g></g><g class="mindmap-node section-3" transform="translate(374.83868417891165, 81.2692387355678)" attr="apa-21)"><g><path id="node-21" class="node-bkg node-no-border" d="M0 32.8 v-27.799999999999997 q0,-5 5,-5 h58.0390625 q5,0 5,5 v32.8 H0 Z"></path><line class="node-line-3" x1="0" y1="37.8" x2="68.0390625" y2="37.8"></line></g><g dy="1em" alignment-baseline="middle" dominant-baseline="middle" text-anchor="middle" transform="translate(34.01953125, 5)"><g><rect class="background"></rect><text y="-10.1"><tspan class="text-outer-tspan" x="0" y="-0.1em" dy="1.1em"><tspan font-style="normal" class="text-inner-tspan" font-weight="normal">Truffle</tspan></tspan></text></g></g></g><g class="mindmap-node section-3" transform="translate(48.24414175219897, 48.09165823926265)" attr="apa-22)"><g><path id="node-22" class="node-bkg node-no-border" d="M0 32.8 v-27.799999999999997 q0,-5 5,-5 h72.0390625 q5,0 5,5 v32.8 H0 Z"></path><line class="node-line-3" x1="0" y1="37.8" x2="82.0390625" y2="37.8"></line></g><g dy="1em" alignment-baseline="middle" dominant-baseline="middle" text-anchor="middle" transform="translate(41.01953125, 5)"><g><rect class="background"></rect><text y="-10.1"><tspan class="text-outer-tspan" x="0" y="-0.1em" dy="1.1em"><tspan font-style="normal" class="text-inner-tspan" font-weight="normal">Ganache</tspan></tspan></text></g></g></g><g class="mindmap-node section-3" transform="translate(15, 124.48772537079412)" attr="apa-23)"><g><path id="node-23" class="node-bkg node-no-border" d="M0 32.8 v-27.799999999999997 q0,-5 5,-5 h45.09375 q5,0 5,5 v32.8 H0 Z"></path><line class="node-line-3" x1="0" y1="37.8" x2="55.09375" y2="37.8"></line></g><g dy="1em" alignment-baseline="middle" dominant-baseline="middle" text-anchor="middle" transform="translate(27.546875, 5)"><g><rect class="background"></rect><text y="-10.1"><tspan class="text-outer-tspan" x="0" y="-0.1em" dy="1.1em"><tspan font-style="normal" class="text-inner-tspan" font-weight="normal">Apex</tspan></tspan></text></g></g></g></g><style>@import url("https://cdnjs.cloudflare.com/ajax/libs/font-awesome/6.4.0/css/all.min.css");</style></svg>